<mxfile host="app.diagrams.net" agent="Mozilla/5.0 (Windows NT 10.0; Win64; x64) AppleWebKit/537.36 (KHTML, like Gecko) Chrome/136.0.0.0 Safari/537.36" version="27.0.6">
  <diagram name="Seite-1" id="JBDNN14yZHlDi9cgjCYG">
    <mxGraphModel dx="1426" dy="863" grid="1" gridSize="10" guides="1" tooltips="1" connect="1" arrows="1" fold="1" page="1" pageScale="1" pageWidth="1169" pageHeight="827" math="0" shadow="0">
      <root>
        <mxCell id="0" />
        <mxCell id="1" parent="0" />
        <mxCell id="DUQQMZTj3ee7KA1zqvh8-1" value="class&amp;nbsp; PokemonApiAbrufer" style="swimlane;fontStyle=1;align=center;verticalAlign=top;childLayout=stackLayout;horizontal=1;startSize=26;horizontalStack=0;resizeParent=1;resizeParentMax=0;resizeLast=0;collapsible=1;marginBottom=0;whiteSpace=wrap;html=1;fontSize=14;" vertex="1" parent="1">
          <mxGeometry x="285" y="210" width="240" height="104" as="geometry" />
        </mxCell>
        <mxCell id="DUQQMZTj3ee7KA1zqvh8-2" value="- client: HttpClient&lt;div&gt;- gson: Gson&lt;/div&gt;" style="text;strokeColor=none;fillColor=none;align=left;verticalAlign=top;spacingLeft=4;spacingRight=4;overflow=hidden;rotatable=0;points=[[0,0.5],[1,0.5]];portConstraint=eastwest;whiteSpace=wrap;html=1;fontSize=14;" vertex="1" parent="DUQQMZTj3ee7KA1zqvh8-1">
          <mxGeometry y="26" width="240" height="44" as="geometry" />
        </mxCell>
        <mxCell id="DUQQMZTj3ee7KA1zqvh8-3" value="" style="line;strokeWidth=1;fillColor=none;align=left;verticalAlign=middle;spacingTop=-1;spacingLeft=3;spacingRight=3;rotatable=0;labelPosition=right;points=[];portConstraint=eastwest;strokeColor=inherit;fontSize=14;" vertex="1" parent="DUQQMZTj3ee7KA1zqvh8-1">
          <mxGeometry y="70" width="240" height="8" as="geometry" />
        </mxCell>
        <mxCell id="DUQQMZTj3ee7KA1zqvh8-4" value="+ getJsonString (String): Pokemon" style="text;strokeColor=none;fillColor=none;align=left;verticalAlign=top;spacingLeft=4;spacingRight=4;overflow=hidden;rotatable=0;points=[[0,0.5],[1,0.5]];portConstraint=eastwest;whiteSpace=wrap;html=1;fontSize=14;" vertex="1" parent="DUQQMZTj3ee7KA1zqvh8-1">
          <mxGeometry y="78" width="240" height="26" as="geometry" />
        </mxCell>
        <mxCell id="DUQQMZTj3ee7KA1zqvh8-11" value="&amp;lt;&amp;lt;interface&amp;gt;&amp;gt;&amp;nbsp;&lt;span style=&quot;color: light-dark(rgb(0, 0, 0), rgb(255, 255, 255)); background-color: transparent;&quot;&gt;PokemonApi&lt;/span&gt;" style="swimlane;fontStyle=1;align=center;verticalAlign=top;childLayout=stackLayout;horizontal=1;startSize=26;horizontalStack=0;resizeParent=1;resizeParentMax=0;resizeLast=0;collapsible=1;marginBottom=0;whiteSpace=wrap;html=1;fontSize=14;" vertex="1" parent="1">
          <mxGeometry x="285" y="20" width="240" height="110" as="geometry" />
        </mxCell>
        <mxCell id="DUQQMZTj3ee7KA1zqvh8-12" value="&amp;nbsp;" style="text;strokeColor=none;fillColor=none;align=left;verticalAlign=top;spacingLeft=4;spacingRight=4;overflow=hidden;rotatable=0;points=[[0,0.5],[1,0.5]];portConstraint=eastwest;whiteSpace=wrap;html=1;fontSize=14;" vertex="1" parent="DUQQMZTj3ee7KA1zqvh8-11">
          <mxGeometry y="26" width="240" height="26" as="geometry" />
        </mxCell>
        <mxCell id="DUQQMZTj3ee7KA1zqvh8-13" value="" style="line;strokeWidth=1;fillColor=none;align=left;verticalAlign=middle;spacingTop=-1;spacingLeft=3;spacingRight=3;rotatable=0;labelPosition=right;points=[];portConstraint=eastwest;strokeColor=inherit;fontSize=14;" vertex="1" parent="DUQQMZTj3ee7KA1zqvh8-11">
          <mxGeometry y="52" width="240" height="8" as="geometry" />
        </mxCell>
        <mxCell id="DUQQMZTj3ee7KA1zqvh8-14" value="+ getJsonString (String): Pokemon" style="text;strokeColor=none;fillColor=none;align=left;verticalAlign=top;spacingLeft=4;spacingRight=4;overflow=hidden;rotatable=0;points=[[0,0.5],[1,0.5]];portConstraint=eastwest;whiteSpace=wrap;html=1;fontSize=14;" vertex="1" parent="DUQQMZTj3ee7KA1zqvh8-11">
          <mxGeometry y="60" width="240" height="50" as="geometry" />
        </mxCell>
        <mxCell id="DUQQMZTj3ee7KA1zqvh8-15" value="" style="endArrow=block;dashed=1;endFill=0;endSize=12;html=1;rounded=0;entryX=0.52;entryY=1.077;entryDx=0;entryDy=0;entryPerimeter=0;exitX=0.52;exitY=0;exitDx=0;exitDy=0;exitPerimeter=0;fontSize=14;" edge="1" parent="1" source="DUQQMZTj3ee7KA1zqvh8-1" target="DUQQMZTj3ee7KA1zqvh8-14">
          <mxGeometry width="160" relative="1" as="geometry">
            <mxPoint x="395" y="160" as="sourcePoint" />
            <mxPoint x="555" y="160" as="targetPoint" />
          </mxGeometry>
        </mxCell>
        <mxCell id="DUQQMZTj3ee7KA1zqvh8-16" value="class Main" style="swimlane;fontStyle=1;align=center;verticalAlign=top;childLayout=stackLayout;horizontal=1;startSize=26;horizontalStack=0;resizeParent=1;resizeParentMax=0;resizeLast=0;collapsible=1;marginBottom=0;whiteSpace=wrap;html=1;fontSize=14;" vertex="1" parent="1">
          <mxGeometry x="20" y="210" width="200" height="104" as="geometry" />
        </mxCell>
        <mxCell id="DUQQMZTj3ee7KA1zqvh8-17" value="&amp;nbsp;" style="text;strokeColor=none;fillColor=none;align=left;verticalAlign=top;spacingLeft=4;spacingRight=4;overflow=hidden;rotatable=0;points=[[0,0.5],[1,0.5]];portConstraint=eastwest;whiteSpace=wrap;html=1;fontSize=14;" vertex="1" parent="DUQQMZTj3ee7KA1zqvh8-16">
          <mxGeometry y="26" width="200" height="44" as="geometry" />
        </mxCell>
        <mxCell id="DUQQMZTj3ee7KA1zqvh8-18" value="" style="line;strokeWidth=1;fillColor=none;align=left;verticalAlign=middle;spacingTop=-1;spacingLeft=3;spacingRight=3;rotatable=0;labelPosition=right;points=[];portConstraint=eastwest;strokeColor=inherit;fontSize=14;" vertex="1" parent="DUQQMZTj3ee7KA1zqvh8-16">
          <mxGeometry y="70" width="200" height="8" as="geometry" />
        </mxCell>
        <mxCell id="DUQQMZTj3ee7KA1zqvh8-19" value="&amp;nbsp;" style="text;strokeColor=none;fillColor=none;align=left;verticalAlign=top;spacingLeft=4;spacingRight=4;overflow=hidden;rotatable=0;points=[[0,0.5],[1,0.5]];portConstraint=eastwest;whiteSpace=wrap;html=1;fontSize=14;" vertex="1" parent="DUQQMZTj3ee7KA1zqvh8-16">
          <mxGeometry y="78" width="200" height="26" as="geometry" />
        </mxCell>
        <mxCell id="DUQQMZTj3ee7KA1zqvh8-20" value="class&amp;nbsp; TeamManagerImpl" style="swimlane;fontStyle=1;align=center;verticalAlign=top;childLayout=stackLayout;horizontal=1;startSize=26;horizontalStack=0;resizeParent=1;resizeParentMax=0;resizeLast=0;collapsible=1;marginBottom=0;whiteSpace=wrap;html=1;fontSize=14;" vertex="1" parent="1">
          <mxGeometry x="650" y="210" width="250" height="130" as="geometry" />
        </mxCell>
        <mxCell id="DUQQMZTj3ee7KA1zqvh8-21" value="- mapper: ObjectMapper&lt;div&gt;- gson: Gson&lt;/div&gt;" style="text;strokeColor=none;fillColor=none;align=left;verticalAlign=top;spacingLeft=4;spacingRight=4;overflow=hidden;rotatable=0;points=[[0,0.5],[1,0.5]];portConstraint=eastwest;whiteSpace=wrap;html=1;fontSize=14;" vertex="1" parent="DUQQMZTj3ee7KA1zqvh8-20">
          <mxGeometry y="26" width="250" height="44" as="geometry" />
        </mxCell>
        <mxCell id="DUQQMZTj3ee7KA1zqvh8-22" value="" style="line;strokeWidth=1;fillColor=none;align=left;verticalAlign=middle;spacingTop=-1;spacingLeft=3;spacingRight=3;rotatable=0;labelPosition=right;points=[];portConstraint=eastwest;strokeColor=inherit;fontSize=14;" vertex="1" parent="DUQQMZTj3ee7KA1zqvh8-20">
          <mxGeometry y="70" width="250" height="8" as="geometry" />
        </mxCell>
        <mxCell id="DUQQMZTj3ee7KA1zqvh8-23" value="+ save (List&amp;lt;Pokemon&amp;gt;, String): void&lt;div&gt;+ load (String): List&amp;lt;Pokemon&amp;gt;&lt;/div&gt;" style="text;strokeColor=none;fillColor=none;align=left;verticalAlign=top;spacingLeft=4;spacingRight=4;overflow=hidden;rotatable=0;points=[[0,0.5],[1,0.5]];portConstraint=eastwest;whiteSpace=wrap;html=1;fontSize=14;" vertex="1" parent="DUQQMZTj3ee7KA1zqvh8-20">
          <mxGeometry y="78" width="250" height="52" as="geometry" />
        </mxCell>
        <mxCell id="DUQQMZTj3ee7KA1zqvh8-24" value="&amp;lt;&amp;lt;interface&amp;gt;&amp;gt;&amp;nbsp;&lt;span style=&quot;color: light-dark(rgb(0, 0, 0), rgb(255, 255, 255)); background-color: transparent;&quot;&gt;TeamManager&lt;/span&gt;" style="swimlane;fontStyle=1;align=center;verticalAlign=top;childLayout=stackLayout;horizontal=1;startSize=26;horizontalStack=0;resizeParent=1;resizeParentMax=0;resizeLast=0;collapsible=1;marginBottom=0;whiteSpace=wrap;html=1;fontSize=14;" vertex="1" parent="1">
          <mxGeometry x="650" y="30" width="250" height="100" as="geometry" />
        </mxCell>
        <mxCell id="DUQQMZTj3ee7KA1zqvh8-25" value="&amp;nbsp;" style="text;strokeColor=none;fillColor=none;align=left;verticalAlign=top;spacingLeft=4;spacingRight=4;overflow=hidden;rotatable=0;points=[[0,0.5],[1,0.5]];portConstraint=eastwest;whiteSpace=wrap;html=1;fontSize=14;" vertex="1" parent="DUQQMZTj3ee7KA1zqvh8-24">
          <mxGeometry y="26" width="250" height="26" as="geometry" />
        </mxCell>
        <mxCell id="DUQQMZTj3ee7KA1zqvh8-26" value="" style="line;strokeWidth=1;fillColor=none;align=left;verticalAlign=middle;spacingTop=-1;spacingLeft=3;spacingRight=3;rotatable=0;labelPosition=right;points=[];portConstraint=eastwest;strokeColor=inherit;fontSize=14;" vertex="1" parent="DUQQMZTj3ee7KA1zqvh8-24">
          <mxGeometry y="52" width="250" height="8" as="geometry" />
        </mxCell>
        <mxCell id="DUQQMZTj3ee7KA1zqvh8-27" value="+ save (List&amp;lt;Pokemon&amp;gt;, String): void&lt;div&gt;+ load (String): List&amp;lt;Pokemon&amp;gt;&lt;/div&gt;" style="text;strokeColor=none;fillColor=none;align=left;verticalAlign=top;spacingLeft=4;spacingRight=4;overflow=hidden;rotatable=0;points=[[0,0.5],[1,0.5]];portConstraint=eastwest;whiteSpace=wrap;html=1;fontSize=14;" vertex="1" parent="DUQQMZTj3ee7KA1zqvh8-24">
          <mxGeometry y="60" width="250" height="40" as="geometry" />
        </mxCell>
        <mxCell id="DUQQMZTj3ee7KA1zqvh8-28" value="" style="endArrow=block;dashed=1;endFill=0;endSize=12;html=1;rounded=0;entryX=0.52;entryY=1.077;entryDx=0;entryDy=0;entryPerimeter=0;exitX=0.52;exitY=0;exitDx=0;exitDy=0;exitPerimeter=0;fontSize=14;" edge="1" parent="1" source="DUQQMZTj3ee7KA1zqvh8-20" target="DUQQMZTj3ee7KA1zqvh8-27">
          <mxGeometry width="160" relative="1" as="geometry">
            <mxPoint x="760" y="210" as="sourcePoint" />
            <mxPoint x="920" y="210" as="targetPoint" />
          </mxGeometry>
        </mxCell>
        <mxCell id="DUQQMZTj3ee7KA1zqvh8-29" value="class Pokemon" style="swimlane;fontStyle=1;align=center;verticalAlign=top;childLayout=stackLayout;horizontal=1;startSize=26;horizontalStack=0;resizeParent=1;resizeParentMax=0;resizeLast=0;collapsible=1;marginBottom=0;whiteSpace=wrap;html=1;fontSize=14;" vertex="1" parent="1">
          <mxGeometry x="300" y="620" width="200" height="124" as="geometry" />
        </mxCell>
        <mxCell id="DUQQMZTj3ee7KA1zqvh8-30" value="- name: String&lt;div&gt;- types: List&amp;lt;TypeBox&amp;gt;&lt;/div&gt;&lt;div&gt;- stats:&amp;nbsp; List&amp;lt;StatBox&amp;gt;&lt;/div&gt;" style="text;strokeColor=none;fillColor=none;align=left;verticalAlign=top;spacingLeft=4;spacingRight=4;overflow=hidden;rotatable=0;points=[[0,0.5],[1,0.5]];portConstraint=eastwest;whiteSpace=wrap;html=1;fontSize=14;" vertex="1" parent="DUQQMZTj3ee7KA1zqvh8-29">
          <mxGeometry y="26" width="200" height="64" as="geometry" />
        </mxCell>
        <mxCell id="DUQQMZTj3ee7KA1zqvh8-31" value="" style="line;strokeWidth=1;fillColor=none;align=left;verticalAlign=middle;spacingTop=-1;spacingLeft=3;spacingRight=3;rotatable=0;labelPosition=right;points=[];portConstraint=eastwest;strokeColor=inherit;fontSize=14;" vertex="1" parent="DUQQMZTj3ee7KA1zqvh8-29">
          <mxGeometry y="90" width="200" height="8" as="geometry" />
        </mxCell>
        <mxCell id="DUQQMZTj3ee7KA1zqvh8-32" value="&amp;lt;getters&amp;gt;" style="text;strokeColor=none;fillColor=none;align=left;verticalAlign=top;spacingLeft=4;spacingRight=4;overflow=hidden;rotatable=0;points=[[0,0.5],[1,0.5]];portConstraint=eastwest;whiteSpace=wrap;html=1;fontSize=14;" vertex="1" parent="DUQQMZTj3ee7KA1zqvh8-29">
          <mxGeometry y="98" width="200" height="26" as="geometry" />
        </mxCell>
        <mxCell id="DUQQMZTj3ee7KA1zqvh8-33" value="class TypeBox" style="swimlane;fontStyle=1;align=center;verticalAlign=top;childLayout=stackLayout;horizontal=1;startSize=26;horizontalStack=0;resizeParent=1;resizeParentMax=0;resizeLast=0;collapsible=1;marginBottom=0;whiteSpace=wrap;html=1;fontSize=14;" vertex="1" parent="1">
          <mxGeometry x="130" y="800" width="200" height="114" as="geometry" />
        </mxCell>
        <mxCell id="DUQQMZTj3ee7KA1zqvh8-34" value="- slot: int&lt;div&gt;&lt;div&gt;- type: Type&lt;/div&gt;&lt;div&gt;&lt;br&gt;&lt;/div&gt;&lt;/div&gt;" style="text;strokeColor=none;fillColor=none;align=left;verticalAlign=top;spacingLeft=4;spacingRight=4;overflow=hidden;rotatable=0;points=[[0,0.5],[1,0.5]];portConstraint=eastwest;whiteSpace=wrap;html=1;fontSize=14;" vertex="1" parent="DUQQMZTj3ee7KA1zqvh8-33">
          <mxGeometry y="26" width="200" height="54" as="geometry" />
        </mxCell>
        <mxCell id="DUQQMZTj3ee7KA1zqvh8-35" value="" style="line;strokeWidth=1;fillColor=none;align=left;verticalAlign=middle;spacingTop=-1;spacingLeft=3;spacingRight=3;rotatable=0;labelPosition=right;points=[];portConstraint=eastwest;strokeColor=inherit;fontSize=14;" vertex="1" parent="DUQQMZTj3ee7KA1zqvh8-33">
          <mxGeometry y="80" width="200" height="8" as="geometry" />
        </mxCell>
        <mxCell id="DUQQMZTj3ee7KA1zqvh8-36" value="&amp;lt;getters&amp;gt;" style="text;strokeColor=none;fillColor=none;align=left;verticalAlign=top;spacingLeft=4;spacingRight=4;overflow=hidden;rotatable=0;points=[[0,0.5],[1,0.5]];portConstraint=eastwest;whiteSpace=wrap;html=1;fontSize=14;" vertex="1" parent="DUQQMZTj3ee7KA1zqvh8-33">
          <mxGeometry y="88" width="200" height="26" as="geometry" />
        </mxCell>
        <mxCell id="DUQQMZTj3ee7KA1zqvh8-40" value="" style="endArrow=circlePlus;startArrow=none;endFill=0;startFill=0;endSize=8;html=1;labelBackgroundColor=none;rounded=0;exitX=0.5;exitY=0;exitDx=0;exitDy=0;entryX=0.46;entryY=1.038;entryDx=0;entryDy=0;entryPerimeter=0;" edge="1" parent="1" source="DUQQMZTj3ee7KA1zqvh8-33" target="DUQQMZTj3ee7KA1zqvh8-32">
          <mxGeometry width="160" relative="1" as="geometry">
            <mxPoint x="455" y="782" as="sourcePoint" />
            <mxPoint x="445" y="788" as="targetPoint" />
          </mxGeometry>
        </mxCell>
        <mxCell id="DUQQMZTj3ee7KA1zqvh8-41" value="class Type" style="swimlane;fontStyle=1;align=center;verticalAlign=top;childLayout=stackLayout;horizontal=1;startSize=26;horizontalStack=0;resizeParent=1;resizeParentMax=0;resizeLast=0;collapsible=1;marginBottom=0;whiteSpace=wrap;html=1;fontSize=14;" vertex="1" parent="1">
          <mxGeometry x="130" y="970" width="200" height="94" as="geometry" />
        </mxCell>
        <mxCell id="DUQQMZTj3ee7KA1zqvh8-42" value="&lt;div&gt;&lt;div&gt;-name: String&lt;/div&gt;&lt;/div&gt;" style="text;strokeColor=none;fillColor=none;align=left;verticalAlign=top;spacingLeft=4;spacingRight=4;overflow=hidden;rotatable=0;points=[[0,0.5],[1,0.5]];portConstraint=eastwest;whiteSpace=wrap;html=1;fontSize=14;" vertex="1" parent="DUQQMZTj3ee7KA1zqvh8-41">
          <mxGeometry y="26" width="200" height="34" as="geometry" />
        </mxCell>
        <mxCell id="DUQQMZTj3ee7KA1zqvh8-43" value="" style="line;strokeWidth=1;fillColor=none;align=left;verticalAlign=middle;spacingTop=-1;spacingLeft=3;spacingRight=3;rotatable=0;labelPosition=right;points=[];portConstraint=eastwest;strokeColor=inherit;fontSize=14;" vertex="1" parent="DUQQMZTj3ee7KA1zqvh8-41">
          <mxGeometry y="60" width="200" height="8" as="geometry" />
        </mxCell>
        <mxCell id="DUQQMZTj3ee7KA1zqvh8-44" value="&amp;lt;getters&amp;gt;" style="text;strokeColor=none;fillColor=none;align=left;verticalAlign=top;spacingLeft=4;spacingRight=4;overflow=hidden;rotatable=0;points=[[0,0.5],[1,0.5]];portConstraint=eastwest;whiteSpace=wrap;html=1;fontSize=14;" vertex="1" parent="DUQQMZTj3ee7KA1zqvh8-41">
          <mxGeometry y="68" width="200" height="26" as="geometry" />
        </mxCell>
        <mxCell id="DUQQMZTj3ee7KA1zqvh8-45" value="" style="endArrow=circlePlus;startArrow=none;endFill=0;startFill=0;endSize=8;html=1;labelBackgroundColor=none;rounded=0;exitX=0.5;exitY=0;exitDx=0;exitDy=0;entryX=0.54;entryY=1.115;entryDx=0;entryDy=0;entryPerimeter=0;" edge="1" parent="1" source="DUQQMZTj3ee7KA1zqvh8-41" target="DUQQMZTj3ee7KA1zqvh8-36">
          <mxGeometry width="160" relative="1" as="geometry">
            <mxPoint x="425" y="891" as="sourcePoint" />
            <mxPoint x="507" y="848" as="targetPoint" />
          </mxGeometry>
        </mxCell>
        <mxCell id="DUQQMZTj3ee7KA1zqvh8-46" value="class StatBox" style="swimlane;fontStyle=1;align=center;verticalAlign=top;childLayout=stackLayout;horizontal=1;startSize=26;horizontalStack=0;resizeParent=1;resizeParentMax=0;resizeLast=0;collapsible=1;marginBottom=0;whiteSpace=wrap;html=1;fontSize=14;" vertex="1" parent="1">
          <mxGeometry x="450" y="800" width="200" height="114" as="geometry" />
        </mxCell>
        <mxCell id="DUQQMZTj3ee7KA1zqvh8-47" value="- base_stat: int&lt;div&gt;&lt;div&gt;- stat: Stat&lt;/div&gt;&lt;div&gt;&lt;br&gt;&lt;/div&gt;&lt;/div&gt;" style="text;strokeColor=none;fillColor=none;align=left;verticalAlign=top;spacingLeft=4;spacingRight=4;overflow=hidden;rotatable=0;points=[[0,0.5],[1,0.5]];portConstraint=eastwest;whiteSpace=wrap;html=1;fontSize=14;" vertex="1" parent="DUQQMZTj3ee7KA1zqvh8-46">
          <mxGeometry y="26" width="200" height="54" as="geometry" />
        </mxCell>
        <mxCell id="DUQQMZTj3ee7KA1zqvh8-48" value="" style="line;strokeWidth=1;fillColor=none;align=left;verticalAlign=middle;spacingTop=-1;spacingLeft=3;spacingRight=3;rotatable=0;labelPosition=right;points=[];portConstraint=eastwest;strokeColor=inherit;fontSize=14;" vertex="1" parent="DUQQMZTj3ee7KA1zqvh8-46">
          <mxGeometry y="80" width="200" height="8" as="geometry" />
        </mxCell>
        <mxCell id="DUQQMZTj3ee7KA1zqvh8-49" value="&amp;lt;getters&amp;gt;" style="text;strokeColor=none;fillColor=none;align=left;verticalAlign=top;spacingLeft=4;spacingRight=4;overflow=hidden;rotatable=0;points=[[0,0.5],[1,0.5]];portConstraint=eastwest;whiteSpace=wrap;html=1;fontSize=14;" vertex="1" parent="DUQQMZTj3ee7KA1zqvh8-46">
          <mxGeometry y="88" width="200" height="26" as="geometry" />
        </mxCell>
        <mxCell id="DUQQMZTj3ee7KA1zqvh8-50" value="class Stat" style="swimlane;fontStyle=1;align=center;verticalAlign=top;childLayout=stackLayout;horizontal=1;startSize=26;horizontalStack=0;resizeParent=1;resizeParentMax=0;resizeLast=0;collapsible=1;marginBottom=0;whiteSpace=wrap;html=1;fontSize=14;" vertex="1" parent="1">
          <mxGeometry x="450" y="970" width="200" height="94" as="geometry" />
        </mxCell>
        <mxCell id="DUQQMZTj3ee7KA1zqvh8-51" value="&lt;div&gt;&lt;div&gt;-name: String&lt;/div&gt;&lt;/div&gt;" style="text;strokeColor=none;fillColor=none;align=left;verticalAlign=top;spacingLeft=4;spacingRight=4;overflow=hidden;rotatable=0;points=[[0,0.5],[1,0.5]];portConstraint=eastwest;whiteSpace=wrap;html=1;fontSize=14;" vertex="1" parent="DUQQMZTj3ee7KA1zqvh8-50">
          <mxGeometry y="26" width="200" height="34" as="geometry" />
        </mxCell>
        <mxCell id="DUQQMZTj3ee7KA1zqvh8-52" value="" style="line;strokeWidth=1;fillColor=none;align=left;verticalAlign=middle;spacingTop=-1;spacingLeft=3;spacingRight=3;rotatable=0;labelPosition=right;points=[];portConstraint=eastwest;strokeColor=inherit;fontSize=14;" vertex="1" parent="DUQQMZTj3ee7KA1zqvh8-50">
          <mxGeometry y="60" width="200" height="8" as="geometry" />
        </mxCell>
        <mxCell id="DUQQMZTj3ee7KA1zqvh8-53" value="&amp;lt;getters&amp;gt;" style="text;strokeColor=none;fillColor=none;align=left;verticalAlign=top;spacingLeft=4;spacingRight=4;overflow=hidden;rotatable=0;points=[[0,0.5],[1,0.5]];portConstraint=eastwest;whiteSpace=wrap;html=1;fontSize=14;" vertex="1" parent="DUQQMZTj3ee7KA1zqvh8-50">
          <mxGeometry y="68" width="200" height="26" as="geometry" />
        </mxCell>
        <mxCell id="DUQQMZTj3ee7KA1zqvh8-54" value="" style="endArrow=circlePlus;startArrow=none;endFill=0;startFill=0;endSize=8;html=1;labelBackgroundColor=none;rounded=0;exitX=0.5;exitY=0;exitDx=0;exitDy=0;entryX=0.47;entryY=1.154;entryDx=0;entryDy=0;entryPerimeter=0;" edge="1" parent="1" source="DUQQMZTj3ee7KA1zqvh8-50" target="DUQQMZTj3ee7KA1zqvh8-49">
          <mxGeometry width="160" relative="1" as="geometry">
            <mxPoint x="725" y="891" as="sourcePoint" />
            <mxPoint x="807" y="848" as="targetPoint" />
          </mxGeometry>
        </mxCell>
        <mxCell id="DUQQMZTj3ee7KA1zqvh8-55" value="" style="endArrow=circlePlus;startArrow=none;endFill=0;startFill=0;endSize=8;html=1;labelBackgroundColor=none;rounded=0;entryX=0.565;entryY=1.115;entryDx=0;entryDy=0;entryPerimeter=0;exitX=0.5;exitY=0;exitDx=0;exitDy=0;" edge="1" parent="1" source="DUQQMZTj3ee7KA1zqvh8-46" target="DUQQMZTj3ee7KA1zqvh8-32">
          <mxGeometry width="160" relative="1" as="geometry">
            <mxPoint x="485" y="808" as="sourcePoint" />
            <mxPoint x="577" y="758" as="targetPoint" />
          </mxGeometry>
        </mxCell>
        <mxCell id="DUQQMZTj3ee7KA1zqvh8-56" value="class&amp;nbsp; CommandHandler" style="swimlane;fontStyle=1;align=center;verticalAlign=top;childLayout=stackLayout;horizontal=1;startSize=26;horizontalStack=0;resizeParent=1;resizeParentMax=0;resizeLast=0;collapsible=1;marginBottom=0;whiteSpace=wrap;html=1;fontSize=14;" vertex="1" parent="1">
          <mxGeometry x="20" y="405" width="250" height="150" as="geometry" />
        </mxCell>
        <mxCell id="DUQQMZTj3ee7KA1zqvh8-57" value="- api: PokemonApiAbrufer&lt;div&gt;- teamService: TeamService&lt;/div&gt;&lt;div&gt;- scanner: Scanner&lt;/div&gt;" style="text;strokeColor=none;fillColor=none;align=left;verticalAlign=top;spacingLeft=4;spacingRight=4;overflow=hidden;rotatable=0;points=[[0,0.5],[1,0.5]];portConstraint=eastwest;whiteSpace=wrap;html=1;fontSize=14;" vertex="1" parent="DUQQMZTj3ee7KA1zqvh8-56">
          <mxGeometry y="26" width="250" height="64" as="geometry" />
        </mxCell>
        <mxCell id="DUQQMZTj3ee7KA1zqvh8-58" value="" style="line;strokeWidth=1;fillColor=none;align=left;verticalAlign=middle;spacingTop=-1;spacingLeft=3;spacingRight=3;rotatable=0;labelPosition=right;points=[];portConstraint=eastwest;strokeColor=inherit;fontSize=14;" vertex="1" parent="DUQQMZTj3ee7KA1zqvh8-56">
          <mxGeometry y="90" width="250" height="8" as="geometry" />
        </mxCell>
        <mxCell id="DUQQMZTj3ee7KA1zqvh8-59" value="+ handle () : Boolean&lt;div&gt;- printInfo (Pokemon): void&lt;/div&gt;" style="text;strokeColor=none;fillColor=none;align=left;verticalAlign=top;spacingLeft=4;spacingRight=4;overflow=hidden;rotatable=0;points=[[0,0.5],[1,0.5]];portConstraint=eastwest;whiteSpace=wrap;html=1;fontSize=14;" vertex="1" parent="DUQQMZTj3ee7KA1zqvh8-56">
          <mxGeometry y="98" width="250" height="52" as="geometry" />
        </mxCell>
        <mxCell id="DUQQMZTj3ee7KA1zqvh8-60" value="class&amp;nbsp; TeamService" style="swimlane;fontStyle=1;align=center;verticalAlign=top;childLayout=stackLayout;horizontal=1;startSize=26;horizontalStack=0;resizeParent=1;resizeParentMax=0;resizeLast=0;collapsible=1;marginBottom=0;whiteSpace=wrap;html=1;fontSize=14;" vertex="1" parent="1">
          <mxGeometry x="650" y="390" width="250" height="180" as="geometry" />
        </mxCell>
        <mxCell id="DUQQMZTj3ee7KA1zqvh8-61" value="- team: List&amp;lt;Pokemon&amp;gt;&lt;div&gt;- teamManager : TeamManagerImpl&lt;/div&gt;" style="text;strokeColor=none;fillColor=none;align=left;verticalAlign=top;spacingLeft=4;spacingRight=4;overflow=hidden;rotatable=0;points=[[0,0.5],[1,0.5]];portConstraint=eastwest;whiteSpace=wrap;html=1;fontSize=14;" vertex="1" parent="DUQQMZTj3ee7KA1zqvh8-60">
          <mxGeometry y="26" width="250" height="64" as="geometry" />
        </mxCell>
        <mxCell id="DUQQMZTj3ee7KA1zqvh8-62" value="" style="line;strokeWidth=1;fillColor=none;align=left;verticalAlign=middle;spacingTop=-1;spacingLeft=3;spacingRight=3;rotatable=0;labelPosition=right;points=[];portConstraint=eastwest;strokeColor=inherit;fontSize=14;" vertex="1" parent="DUQQMZTj3ee7KA1zqvh8-60">
          <mxGeometry y="90" width="250" height="8" as="geometry" />
        </mxCell>
        <mxCell id="DUQQMZTj3ee7KA1zqvh8-63" value="+ add (Pokemon) : void&lt;div&gt;+ getTeam () : List&amp;lt;Pokemon&amp;gt;&lt;/div&gt;&lt;div&gt;+ saveTeam (String) : void&lt;/div&gt;&lt;div&gt;+ loadTeam (String) : void&lt;/div&gt;" style="text;strokeColor=none;fillColor=none;align=left;verticalAlign=top;spacingLeft=4;spacingRight=4;overflow=hidden;rotatable=0;points=[[0,0.5],[1,0.5]];portConstraint=eastwest;whiteSpace=wrap;html=1;fontSize=14;" vertex="1" parent="DUQQMZTj3ee7KA1zqvh8-60">
          <mxGeometry y="98" width="250" height="82" as="geometry" />
        </mxCell>
        <mxCell id="DUQQMZTj3ee7KA1zqvh8-64" value="" style="endArrow=none;html=1;rounded=0;exitX=1.016;exitY=0.25;exitDx=0;exitDy=0;entryX=0.488;entryY=1.154;entryDx=0;entryDy=0;entryPerimeter=0;exitPerimeter=0;" edge="1" parent="1" source="DUQQMZTj3ee7KA1zqvh8-57" target="DUQQMZTj3ee7KA1zqvh8-4">
          <mxGeometry width="50" height="50" relative="1" as="geometry">
            <mxPoint x="630" y="370" as="sourcePoint" />
            <mxPoint x="680" y="320" as="targetPoint" />
            <Array as="points">
              <mxPoint x="405" y="450" />
            </Array>
          </mxGeometry>
        </mxCell>
        <mxCell id="DUQQMZTj3ee7KA1zqvh8-65" value="" style="endArrow=none;html=1;rounded=0;entryX=0.53;entryY=1.154;entryDx=0;entryDy=0;entryPerimeter=0;" edge="1" parent="1" target="DUQQMZTj3ee7KA1zqvh8-19">
          <mxGeometry width="50" height="50" relative="1" as="geometry">
            <mxPoint x="126" y="400" as="sourcePoint" />
            <mxPoint x="270" y="350" as="targetPoint" />
          </mxGeometry>
        </mxCell>
        <mxCell id="DUQQMZTj3ee7KA1zqvh8-66" value="" style="endArrow=none;html=1;rounded=0;exitX=0.5;exitY=0;exitDx=0;exitDy=0;entryX=1.012;entryY=0.038;entryDx=0;entryDy=0;entryPerimeter=0;" edge="1" parent="1" source="DUQQMZTj3ee7KA1zqvh8-29" target="DUQQMZTj3ee7KA1zqvh8-59">
          <mxGeometry width="50" height="50" relative="1" as="geometry">
            <mxPoint x="243" y="602" as="sourcePoint" />
            <mxPoint x="240" y="530" as="targetPoint" />
            <Array as="points">
              <mxPoint x="400" y="505" />
            </Array>
          </mxGeometry>
        </mxCell>
        <mxCell id="DUQQMZTj3ee7KA1zqvh8-67" value="" style="endArrow=none;html=1;rounded=0;exitX=1.004;exitY=0.781;exitDx=0;exitDy=0;entryX=-0.012;entryY=0.984;entryDx=0;entryDy=0;entryPerimeter=0;exitPerimeter=0;" edge="1" parent="1" source="DUQQMZTj3ee7KA1zqvh8-57" target="DUQQMZTj3ee7KA1zqvh8-61">
          <mxGeometry width="50" height="50" relative="1" as="geometry">
            <mxPoint x="533" y="572" as="sourcePoint" />
            <mxPoint x="530" y="500" as="targetPoint" />
          </mxGeometry>
        </mxCell>
        <mxCell id="DUQQMZTj3ee7KA1zqvh8-68" value="" style="endArrow=none;html=1;rounded=0;exitX=0.5;exitY=0;exitDx=0;exitDy=0;entryX=0.496;entryY=1.077;entryDx=0;entryDy=0;entryPerimeter=0;" edge="1" parent="1" source="DUQQMZTj3ee7KA1zqvh8-60" target="DUQQMZTj3ee7KA1zqvh8-23">
          <mxGeometry width="50" height="50" relative="1" as="geometry">
            <mxPoint x="533" y="492" as="sourcePoint" />
            <mxPoint x="730" y="380" as="targetPoint" />
          </mxGeometry>
        </mxCell>
      </root>
    </mxGraphModel>
  </diagram>
</mxfile>
